<svg xmlns="http://www.w3.org/2000/svg" width="256" height="256" viewBox="0 0 256 256"><path fill="#FF9900" d="M0 0h256v256H0z"/><path fill="#232F3E" d="M131.06 172.03c20.37 0 32.32-3.83 42.08-11.4c3.32-2.5 3.9-7.23 1.39-10.56s-7.23-3.9-10.56-1.39c-7.9 6.08-18.02 9.35-32.91 9.35c-19.57 0-33.67-4.4-33.67-12.83c0-6.12 7.23-10.6 20.33-13.91l21.2-5.32c25.46-6.4 38.3-17.07 38.3-35.3c0-21.2-18.1-34.8-45.86-34.8c-22.1 0-36.9 4.88-46.3 12.3c-3.1 2.5-3.7 7.2-1.2 10.3s7.2 3.7 10.3 1.2c8.2-6.5 20.1-10.5 37.2-10.5c18.5 0 31.3 5.3 31.3 15.1c0 7.2-7.5 11.2-22.1 14.8l-21.2 5.3c-28.7 7.2-41.5 18.2-41.5 37.1c0 20.62 19.3 33.32 48.73 33.32"/><path fill="#232F3E" d="m205.8 171.3l-11.5-8.2c2.5-3.6 4-7.9 4-12.7c0-13.8-11.2-25-25-25s-25 11.2-25 25s11.2 25 25 25c5.8 0 11.1-2 15.4-5.3l11.6 8.2c-7.1 5.9-16.2 9.5-26.1 9.5c-22.6 0-41-18.4-41-41s18.4-41 41-41s41 18.4 41 41c0 9.8-3.5 18.8-9.2 25.9"/></svg>