<svg xmlns="http://www.w3.org/2000/svg" width="256" height="256" viewBox="0 0 256 256"><path fill="#1DB954" d="M0 0h256v256H0z"/><path fill="#fff" d="M198.8 178.2c-2.3-3.6-7.8-4.8-11.4-2.5c-29.4 18-65.4 22.2-108.8 12.3c-3.9-.9-7.8.9-8.7 4.8c-.9 3.9.9 7.8 4.8 8.7c47.7 10.8 87.6 6 119.4-14.4c3.6-2.2 4.8-7.7 2.7-11.3m1.2-34.2c-2.7-4.5-8.7-6-13.2-3.3c-34.2 20.4-76.8 24.6-120.3 13.5c-4.8-1.2-9.6 1.2-10.8 6c-1.2 4.8 1.2 9.6 6 10.8c48.6 12.3 96.6 7.5 135.6-15.6c4.5-2.7 6-8.7 3.5-13.2M128 41C79.4 41 41 79.4 41 128s38.4 87 87 87s87-38.4 87-87S176.6 41 128 41m48.3 70.2c-35.1-21-82.5-24.9-136.2-13.5c-5.7 1.2-10.8-2.1-12-7.8c-1.2-5.7 2.1-10.8 7.8-12c59.4-12.6 112.5-8.1 152.4 15.6c5.1 3 7.2 9.3 4.2 14.4c-3.1 5.2-9.4 7.3-14.5 4.3"/></svg>